PathFileType	4	(X/Y/Z)	Patient4_TMGait_0pt8_01_left_29.trc.trc
DataRate	CameraRate	NumFrames	NumMarkers	Units	OrigDataRate	OrigDataStartFrame	OrigNumFrames
87.500000000000	87.500000000000	4	33	mm	87.500000000000	71	       141
Frame#	Time	Sacral			L.Shoulder			Chest			R.Shoulder			Neck			R.ASIS			L.ASIS			R.Thigh.Superior			R.Thigh.Lateral			R.Thigh.Inferior			R.Patella			L.Thigh.Superior			L.Thigh.Lateral			L.Thigh.Inferior			L.Patella			L.Shank.Superior			L.Shank.Lateral			L.Shank.Inferior			R.Shank.Superior			R.Shank.Lateral			R.Shank.Inferior			R.Heel			R.Midfoot.Superior			R.Midfoot.Lateral			R.Toe			L.Heel			L.Midfoot.Lateral			L.Midfoot.Superior			L.Toe			L.Elbow			L.Wrist			R.Elbow			R.Wrist			
		X1	Y1	Z1	X2	Y2	Z2	X3	Y3	Z3	X4	Y4	Z4	X5	Y5	Z5	X6	Y6	Z6	X7	Y7	Z7	X8	Y8	Z8	X9	Y9	Z9	X10	Y10	Z10	X11	Y11	Z11	X12	Y12	Z12	X13	Y13	Z13	X14	Y14	Z14	X15	Y15	Z15	X16	Y16	Z16	X17	Y17	Z17	X18	Y18	Z18	X19	Y19	Z19	X20	Y20	Z20	X21	Y21	Z21	X22	Y22	Z22	X23	Y23	Z23	X24	Y24	Z24	X25	Y25	Z25	X26	Y26	Z26	X27	Y27	Z27	X28	Y28	Z28	X29	Y29	Z29	X30	Y30	Z30	X31	Y31	Z31	X32	Y32	Z32	X33	Y33	Z33	

71	32.620000000000	846.980232406133	991.909866909413	453.774519243882	1046.060046735936	1426.998397303370	304.656971034734	1124.626298738889	1352.902513519986	476.738610195865	1015.168710276992	1419.332232646259	639.127702831444	1004.728730565799	1481.545830336736	458.638580267945	1061.742662823158	935.949353399296	597.409099075800	1075.922133257833	948.055623834081	321.898619929693	1143.695553732284	768.377640680423	571.873795171462	1106.892771644577	645.251157634650	645.271911333351	1196.306637739837	610.509709136800	565.564095309146	1234.655414197953	527.140747355061	586.381902456588	1065.360182966442	716.104275449360	353.795459887345	945.704378763966	627.884564765228	282.630121833471	994.815682990626	531.078471808924	352.338990925022	974.584456738295	466.523708537164	361.724928080964	938.167334375952	400.790943607637	351.823409371887	833.068521827884	302.800553394867	298.351725757435	858.747050039383	185.956078925308	372.663925805774	1216.416755443981	436.639224656235	596.963959161095	1161.189814353877	324.325772840982	661.994080754084	1228.849483132926	236.411109622987	610.824693552227	1133.524326425447	49.059790083121	587.049206901772	1297.034106264907	125.887823421916	624.302853525883	1220.684992362540	45.984637603488	657.556671020462	1422.442580287902	89.058396137787	643.385033533926	711.356931714965	40.435763344663	410.371335721654	785.361844855879	36.168070663891	330.684593376845	869.877471335903	95.388287045636	359.097240011683	997.221671201327	40.418540676457	329.180439421126	1156.227092399270	1115.742532511428	153.197610325493	1399.180263083975	1138.213613059396	225.437585193593	865.758093686464	1102.174226714956	728.381825157444	814.890762703765	847.863902711936	746.375498582369	
72	32.631428571429	848.269750795444	988.904927026194	456.038119718090	1045.289062346498	1424.352014210479	306.202853642625	1124.781153676479	1350.659362794180	478.010872611030	1015.723007412996	1416.995223986636	640.700866579324	1004.565775179970	1478.848435724707	460.236885939178	1063.844242738853	932.792934054575	598.549134942478	1076.787203680043	945.772440254950	323.103683848558	1144.000727547508	763.536501844110	572.315965174602	1106.031272938815	640.924918429399	645.949773410985	1194.804149388941	605.796235148340	565.595980490880	1232.698103754587	523.466458072263	585.855785281887	1064.128353152820	713.410109921928	354.018030804346	943.059291568016	626.481001611148	283.341192162120	991.323126559180	529.045351061587	352.758315937155	970.347450856338	464.371969112351	362.144138975213	932.962751160119	399.138623490348	352.194765037583	826.531131269468	302.588426212117	298.573867600872	850.751955685387	185.318972850383	372.593444593009	1216.376750071945	433.005189895400	597.028012406314	1163.154411115548	319.375115440202	661.438584926339	1233.041808346736	233.022938331333	610.315513480632	1141.473209130588	44.609795858501	586.406215022919	1303.796147582992	123.832935999720	623.367527836111	1228.514632113307	43.533145057114	657.199645098282	1429.804782870672	88.959094599324	643.132028078377	702.112403974513	40.692854830533	410.160892509426	776.185019229222	36.190796392813	330.557707223119	860.755350269927	95.292997698751	358.992483421824	988.017397431100	40.237332531107	329.131310525395	1160.308240036591	1115.007692097064	155.266480983734	1401.917674545700	1145.623755919887	227.824413716372	859.258393401369	1104.453965344786	729.580128598021	801.914987568416	851.679687838902	746.147081414516	
73	32.642857142857	849.599942585594	985.974093068538	458.523256318554	1044.565492977213	1421.694806814692	307.840156601592	1125.017957674218	1348.496621368572	479.395785672020	1016.370568464458	1414.755475237080	642.401356187217	1004.503982222210	1476.221740230034	461.963515290166	1066.007233750592	929.700674191878	599.869734492514	1077.727032954044	943.494944958785	324.505872966032	1144.909870536355	759.332528193467	572.972889094050	1105.746391690711	636.969209457208	646.523322607012	1194.343884399950	601.782063422366	566.002751938563	1231.474434980274	519.864036434957	585.644782528814	1063.349412923942	710.796055696467	354.446467585603	941.027337042911	624.994542756755	284.295976751619	988.636522456387	526.952002005352	353.387933741672	966.979687993097	462.001961982335	362.764335282824	928.449639348239	397.334723095956	352.748422400011	820.505966501269	302.471892237956	298.904342866025	842.997689346376	184.712154403112	372.546226611088	1216.319794760283	429.343585622046	597.120085377633	1163.858926907275	314.971741217071	660.589480531252	1235.077725012910	229.622091196465	609.569721698732	1145.214393557891	41.687832225775	585.217784657310	1307.036995404513	121.112944429766	621.954012621684	1231.909827097165	41.615596676601	656.397822590547	1433.111818486878	86.736054865449	642.611829010721	692.871514795588	41.217640400115	409.875220846953	767.044234062842	36.317607633607	330.395419529665	851.730574350824	95.253023293953	358.839232472562	978.860437272083	40.023487302384	329.063102364413	1163.813846712986	1113.982462437933	157.480602717204	1404.015141105876	1151.840611651205	230.186868237838	853.818668160191	1106.487020203684	730.970498908499	790.792105439690	855.152705514728	746.109890987613	
74	32.654285714286	850.936012570914	983.214524805987	461.181835100067	1043.958700505164	1419.125738148963	309.573293420519	1125.364094448844	1346.476961450007	480.904829259935	1017.128563103071	1412.676646151588	644.234795301633	1004.577545993070	1473.761206890364	463.815730912922	1068.180088998310	926.802245588061	601.394932584919	1078.705422527384	941.296578528018	326.105291955201	1146.450598010077	755.930978941947	573.881526235616	1106.056080593331	633.518999375431	646.993538688433	1194.962516672957	598.592731059547	566.800947937571	1231.061887774682	516.496221231494	585.728765699031	1063.025214893676	708.339170342563	355.102951424443	939.634755274671	623.461447718047	285.507547753957	986.820528621733	524.835890048918	354.224874193590	964.572822301451	459.435807358485	363.549872489977	924.688653271819	395.413218897415	353.468390626017	815.036749935229	302.509675613571	299.356930189001	835.532072822203	184.191311029201	372.517367899362	1216.367852197782	425.814305376648	597.216338676964	1163.603110754670	311.216968266333	659.626222516362	1235.215610428557	226.285316439835	608.677546011961	1145.072140664028	40.064678882295	583.743589502755	1307.084451796656	117.843217575168	620.219670531396	1231.311982744947	40.136369778789	655.351063164937	1432.817415057701	82.682199609261	641.867687146374	683.653774041077	42.117509176890	409.524046228785	757.949032468130	36.602245599408	330.204278207146	842.848631269328	95.289030985013	358.625619210947	969.760023461005	39.786291932542	328.976433137335	1166.670551397973	1112.663660355730	159.840383257327	1405.502079321132	1156.810129084037	232.517353166497	849.550879648698	1108.162933478735	732.522478369262	781.549305836200	858.147980474849	746.355093827308	
